<svg width="135" height="40" viewBox="0 0 135 40" fill="none" xmlns="http://www.w3.org/2000/svg">
<path d="M124.249 0.00013H10.7566C10.3429 0.00013 9.9342 0.00013 9.5216 0.00213C9.17621 0.00413 8.83358 0.00994 8.48488 0.01483C7.72733 0.0227318 6.97157 0.0818063 6.22416 0.19154C5.4778 0.303663 4.75482 0.515046 4.07967 0.81854C3.40534 1.1246 2.7892 1.5223 2.25357 1.9972C1.71514 2.47077 1.26632 3.01815 0.924356 3.61829C0.581453 4.21724 0.343683 4.85907 0.219258 5.52161C0.0936495 6.18332 0.0260586 6.85265 0.0170916 7.52361C0.00662229 7.83021 0.00551669 8.13783 0 8.44447V31.5587C0.00551669 31.8692 0.00662229 32.17 0.0170916 32.4806C0.0260614 33.1516 0.0936522 33.8209 0.219258 34.4825C0.343339 35.1455 0.581124 35.7877 0.924356 36.3868C1.26616 36.985 1.71505 37.5302 2.25357 38.0011C2.78717 38.4781 3.40371 38.8761 4.07967 39.1798C4.75481 39.4841 5.47772 39.6968 6.22416 39.8106C6.9717 39.9195 7.72738 39.9786 8.48488 39.9874C8.83358 39.9942 9.17621 39.9981 9.5216 39.9981C9.93419 40.0001 10.343 40.0001 10.7566 40.0001H124.249C124.655 40.0001 125.067 40.0001 125.472 39.9981C125.816 39.9981 126.169 39.9942 126.512 39.9874C127.268 39.9791 128.023 39.92 128.769 39.8106C129.518 39.696 130.243 39.4834 130.921 39.1798C131.597 38.8759 132.213 38.478 132.746 38.0011C133.283 37.5284 133.733 36.9836 134.079 36.3868C134.42 35.7872 134.655 35.1451 134.777 34.4825C134.903 33.8208 134.973 33.1516 134.987 32.4806C134.991 32.17 134.991 31.8692 134.991 31.5587C135 31.1954 135 30.8341 135 30.4649V9.53626C135 9.17005 135 8.80677 134.991 8.44447C134.991 8.13783 134.991 7.83021 134.987 7.52357C134.973 6.85255 134.903 6.18337 134.777 5.52157C134.655 4.85941 134.419 4.21763 134.079 3.61825C133.383 2.41533 132.278 1.43616 130.921 0.81845C130.243 0.515697 129.518 0.30437 128.769 0.19145C128.023 0.0812328 127.269 0.0221378 126.512 0.01469C126.169 0.00981 125.816 0.00395 125.472 0.002C125.067 0 124.655 0 124.249 0V0.00013Z" fill="#A6A6A6"/>
<path d="M9.42998 39.1281C9.08566 39.1281 8.74966 39.1242 8.40804 39.1174C7.70034 39.1093 6.9943 39.0547 6.29571 38.9543C5.6443 38.855 5.01327 38.6703 4.42342 38.4063C3.83897 38.1444 3.30591 37.8011 2.84466 37.3895C2.37673 36.9826 1.98715 36.5108 1.69137 35.9927C1.39233 35.4711 1.18538 34.9121 1.07772 34.3351C0.961463 33.7151 0.898562 33.0882 0.889561 32.4597C0.882396 32.2488 0.873016 31.5464 0.873016 31.5464V8.44104C0.873016 8.44104 0.883007 7.74949 0.889618 7.54631C0.898236 6.91886 0.960772 6.2929 1.07668 5.67385C1.18454 5.09525 1.39165 4.53463 1.69085 4.0114C1.98554 3.49361 2.37296 3.02143 2.83807 2.61316C3.30266 2.20102 3.83742 1.85593 4.42286 1.59048C5.01136 1.32731 5.6412 1.14391 6.29129 1.04642C6.99218 0.944969 7.70067 0.890117 8.41082 0.88233L9.43053 0.870117H125.57L126.602 0.88282C127.306 0.890221 128.008 0.944583 128.702 1.04544C129.359 1.14415 129.995 1.32883 130.59 1.59341C131.763 2.12837 132.718 2.97472 133.32 4.01384C133.614 4.53346 133.818 5.08951 133.924 5.66311C134.042 6.28724 134.107 6.91812 134.121 7.55071C134.124 7.83397 134.124 8.13824 134.124 8.44104C134.133 8.81612 134.133 9.17312 134.133 9.53306V30.4661C134.133 30.8295 134.133 31.1841 134.124 31.5415C134.124 31.8668 134.124 32.1648 134.12 32.4714C134.106 33.0927 134.042 33.7124 133.927 34.3253C133.821 34.9065 133.615 35.4699 133.316 35.9957C133.018 36.5082 132.631 36.9759 132.169 37.3817C131.707 37.7955 131.173 38.1409 130.587 38.4044C129.994 38.6704 129.358 38.8558 128.702 38.9543C128.004 39.0553 127.297 39.1098 126.59 39.1174C126.259 39.1242 125.912 39.1281 125.576 39.1281L124.35 39.1301L9.42998 39.1281Z" fill="black"/>
<path d="M32.7973 20.3008C32.8081 19.4662 33.0298 18.6478 33.4418 17.9218C33.8538 17.1959 34.4428 16.5859 35.1539 16.1488C34.7021 15.5036 34.1062 14.9727 33.4134 14.5981C32.7205 14.2236 31.9499 14.0157 31.1627 13.9911C29.4835 13.8148 27.8555 14.9959 26.9998 14.9959C26.1275 14.9959 24.81 14.0086 23.3913 14.0378C22.4736 14.0674 21.5793 14.3343 20.7954 14.8123C20.0115 15.2904 19.3649 15.9633 18.9184 16.7656C16.9844 20.1141 18.427 25.0351 20.2796 27.7417C21.2065 29.0671 22.2898 30.5475 23.7072 30.495C25.0943 30.4375 25.6123 29.6105 27.2866 29.6105C28.9454 29.6105 29.4314 30.495 30.8776 30.4616C32.366 30.4375 33.3038 29.1304 34.1981 27.7925C34.8641 26.8481 35.3766 25.8044 35.7166 24.7C34.8518 24.3343 34.1139 23.7221 33.5948 22.9398C33.0757 22.1575 32.7983 21.2397 32.7973 20.3008V20.3008Z" fill="white"/>
<path d="M30.0657 12.211C30.8772 11.2368 31.277 9.98463 31.1802 8.7204C29.9404 8.85062 28.7951 9.44318 27.9726 10.38C27.5705 10.8377 27.2625 11.3701 27.0662 11.9469C26.87 12.5236 26.7893 13.1334 26.8289 13.7414C27.449 13.7478 28.0626 13.6134 28.6232 13.3483C29.1839 13.0832 29.6771 12.6943 30.0657 12.211Z" fill="white"/>
<path d="M50.3307 27.1397H45.5973L44.4606 30.4962H42.4557L46.9391 18.0782H49.0221L53.5055 30.4962H51.4664L50.3307 27.1397ZM46.0875 25.5909H49.8395L47.9899 20.1436H47.9381L46.0875 25.5909Z" fill="white"/>
<path d="M63.1881 25.9698C63.1881 28.7833 61.6823 30.5909 59.4098 30.5909C58.8342 30.621 58.2617 30.4884 57.7579 30.2083C57.2541 29.9281 56.8394 29.5118 56.5612 29.0069H56.5182V33.4913H54.6598V21.4425H56.4586V22.9483H56.4928C56.7838 22.4459 57.2055 22.0317 57.7131 21.7498C58.2208 21.468 58.7953 21.329 59.3756 21.3477C61.6735 21.3477 63.1881 23.1641 63.1881 25.9698ZM61.278 25.9698C61.278 24.1368 60.3307 22.9317 58.8854 22.9317C57.4655 22.9317 56.5104 24.1622 56.5104 25.9698C56.5104 27.794 57.4655 29.0157 58.8854 29.0157C60.3307 29.0157 61.278 27.8194 61.278 25.9698Z" fill="white"/>
<path d="M73.1529 25.9699C73.1529 28.7833 71.6471 30.591 69.3746 30.591C68.7989 30.6211 68.2264 30.4885 67.7227 30.2083C67.2189 29.9282 66.8041 29.5118 66.526 29.007H66.483V33.4913H64.6246V21.4425H66.4234V22.9484H66.4576C66.7485 22.4459 67.1703 22.0317 67.6779 21.7499C68.1855 21.468 68.7601 21.3291 69.3404 21.3478C71.6383 21.3478 73.1529 23.1642 73.1529 25.9699ZM71.2428 25.9699C71.2428 24.1369 70.2955 22.9318 68.8502 22.9318C67.4303 22.9318 66.4752 24.1623 66.4752 25.9699C66.4752 27.7941 67.4303 29.0158 68.8502 29.0158C70.2955 29.0158 71.2428 27.8195 71.2428 25.9699H71.2428Z" fill="white"/>
<path d="M79.7389 27.0362C79.8766 28.2677 81.0729 29.0762 82.7077 29.0762C84.2741 29.0762 85.401 28.2677 85.401 27.1573C85.401 26.1934 84.7213 25.6163 83.112 25.2208L81.5026 24.8331C79.2223 24.2823 78.1637 23.2159 78.1637 21.4854C78.1637 19.3428 80.0309 17.8712 82.6823 17.8712C85.3063 17.8712 87.1051 19.3428 87.1657 21.4854H85.2897C85.1774 20.2462 84.153 19.4981 82.6559 19.4981C81.1588 19.4981 80.1344 20.255 80.1344 21.3565C80.1344 22.2344 80.7887 22.751 82.3893 23.1465L83.7574 23.4825C86.3053 24.085 87.3639 25.1085 87.3639 26.9248C87.3639 29.2481 85.5133 30.7032 82.5699 30.7032C79.816 30.7032 77.9567 29.2823 77.8365 27.0362L79.7389 27.0362Z" fill="white"/>
<path d="M91.3746 19.2999V21.4425H93.0963V22.9142H91.3746V27.9054C91.3746 28.6808 91.7194 29.0421 92.4762 29.0421C92.6806 29.0386 92.8846 29.0242 93.0875 28.9991V30.462C92.7472 30.5256 92.4014 30.5544 92.0553 30.5479C90.2223 30.5479 89.5074 29.8595 89.5074 28.1036V22.9142H88.191V21.4425H89.5074V19.2999H91.3746Z" fill="white"/>
<path d="M94.0934 25.9698C94.0934 23.1212 95.7712 21.3312 98.3874 21.3312C101.012 21.3312 102.682 23.1212 102.682 25.9698C102.682 28.8263 101.021 30.6085 98.3874 30.6085C95.7545 30.6085 94.0934 28.8263 94.0934 25.9698ZM100.789 25.9698C100.789 24.0157 99.8932 22.8624 98.3874 22.8624C96.8815 22.8624 95.987 24.0245 95.987 25.9698C95.987 27.9318 96.8815 29.0763 98.3874 29.0763C99.8932 29.0763 100.789 27.9318 100.789 25.9698H100.789Z" fill="white"/>
<path d="M104.214 21.4425H105.987V22.9835H106.03C106.15 22.5022 106.432 22.0769 106.828 21.779C107.225 21.4811 107.712 21.3288 108.208 21.3478C108.422 21.347 108.635 21.3703 108.844 21.4171V23.1554C108.574 23.0728 108.292 23.0348 108.009 23.0431C107.739 23.0321 107.47 23.0797 107.22 23.1826C106.971 23.2855 106.746 23.4412 106.562 23.6391C106.378 23.837 106.239 24.0724 106.155 24.3291C106.07 24.5857 106.042 24.8576 106.073 25.1261V30.4962H104.214L104.214 21.4425Z" fill="white"/>
<path d="M117.413 27.837C117.163 29.4806 115.562 30.6085 113.514 30.6085C110.88 30.6085 109.246 28.8439 109.246 26.0128C109.246 23.173 110.889 21.3312 113.436 21.3312C115.941 21.3312 117.516 23.0519 117.516 25.797V26.4337H111.122V26.546C111.092 26.8792 111.134 27.2149 111.244 27.5307C111.354 27.8466 111.53 28.1353 111.761 28.3779C111.991 28.6204 112.27 28.8112 112.58 28.9375C112.89 29.0638 113.223 29.1228 113.557 29.1105C113.996 29.1516 114.437 29.0499 114.814 28.8205C115.191 28.591 115.483 28.2461 115.648 27.837L117.413 27.837ZM111.13 25.1349H115.657C115.674 24.8353 115.628 24.5355 115.523 24.2543C115.419 23.9731 115.257 23.7165 115.049 23.5008C114.84 23.285 114.589 23.1147 114.312 23.0004C114.034 22.8862 113.736 22.8306 113.436 22.837C113.134 22.8352 112.834 22.8934 112.553 23.0081C112.273 23.1229 112.019 23.2919 111.805 23.5056C111.59 23.7192 111.42 23.9732 111.305 24.2528C111.189 24.5325 111.13 24.8323 111.13 25.1349V25.1349Z" fill="white"/>
<path d="M45.8546 8.73114C46.2442 8.70318 46.6352 8.76204 46.9993 8.90347C47.3634 9.0449 47.6916 9.26538 47.9602 9.54901C48.2288 9.83263 48.4311 10.1723 48.5525 10.5436C48.6739 10.9149 48.7114 11.3085 48.6622 11.696C48.6622 13.6022 47.632 14.698 45.8546 14.698H43.6993V8.73114H45.8546ZM44.6261 13.8541H45.7511C46.0295 13.8708 46.3081 13.8251 46.5666 13.7205C46.8252 13.6159 47.0571 13.455 47.2456 13.2494C47.4341 13.0438 47.5744 12.7988 47.6563 12.5322C47.7381 12.2656 47.7595 11.9841 47.7189 11.7081C47.7566 11.4333 47.733 11.1535 47.6499 10.8889C47.5668 10.6242 47.4262 10.3812 47.2381 10.1773C47.05 9.97334 46.8192 9.81353 46.5621 9.70929C46.305 9.60506 46.0281 9.55897 45.7511 9.57435H44.6261V13.8541Z" fill="white"/>
<path d="M49.7091 12.4445C49.6808 12.1486 49.7147 11.85 49.8085 11.5679C49.9023 11.2858 50.0541 11.0265 50.254 10.8065C50.454 10.5865 50.6977 10.4108 50.9695 10.2905C51.2414 10.1702 51.5354 10.1081 51.8326 10.1081C52.1299 10.1081 52.4239 10.1702 52.6958 10.2905C52.9676 10.4108 53.2113 10.5865 53.4113 10.8065C53.6112 11.0265 53.763 11.2858 53.8568 11.5679C53.9506 11.85 53.9845 12.1486 53.9562 12.4445C53.985 12.7407 53.9516 13.0397 53.858 13.3222C53.7644 13.6047 53.6127 13.8645 53.4127 14.085C53.2127 14.3054 52.9688 14.4815 52.6967 14.602C52.4246 14.7226 52.1303 14.7848 51.8326 14.7848C51.535 14.7848 51.2407 14.7226 50.9686 14.602C50.6964 14.4815 50.4525 14.3054 50.2526 14.085C50.0526 13.8645 49.9009 13.6047 49.8073 13.3222C49.7137 13.0397 49.6803 12.7407 49.7091 12.4445V12.4445ZM53.0421 12.4445C53.0421 11.4684 52.6036 10.8976 51.8341 10.8976C51.0617 10.8976 50.6271 11.4684 50.6271 12.4445C50.6271 13.4284 51.0617 13.9948 51.8341 13.9948C52.6037 13.9948 53.0421 13.4245 53.0421 12.4445H53.0421Z" fill="white"/>
<path d="M59.6017 14.6979H58.6798L57.7491 11.3815H57.6788L56.7521 14.6979H55.839L54.5978 10.1949H55.4991L56.3058 13.6309H56.3722L57.298 10.1949H58.1505L59.0763 13.6309H59.1466L59.9493 10.1949H60.838L59.6017 14.6979Z" fill="white"/>
<path d="M61.882 10.1949H62.7374V10.9103H62.8038C62.9165 10.6533 63.1065 10.438 63.3474 10.2942C63.5882 10.1504 63.868 10.0853 64.1476 10.108C64.3667 10.0915 64.5867 10.1246 64.7913 10.2047C64.9959 10.2848 65.1798 10.4099 65.3295 10.5707C65.4792 10.7316 65.5908 10.924 65.656 11.1338C65.7212 11.3437 65.7383 11.5655 65.7062 11.7828V14.6978H64.8175V12.006C64.8175 11.2823 64.5031 10.9225 63.8458 10.9225C63.6971 10.9155 63.5486 10.9409 63.4105 10.9967C63.2725 11.0525 63.1481 11.1375 63.046 11.2459C62.9439 11.3543 62.8664 11.4835 62.8188 11.6246C62.7713 11.7658 62.7549 11.9155 62.7706 12.0636V14.6979H61.882L61.882 10.1949Z" fill="white"/>
<path d="M67.1222 8.43713H68.0109V14.6979H67.1222V8.43713Z" fill="white"/>
<path d="M69.2462 12.4445C69.2179 12.1486 69.2518 11.85 69.3457 11.5679C69.4395 11.2858 69.5913 11.0265 69.7913 10.8065C69.9912 10.5865 70.235 10.4107 70.5068 10.2904C70.7787 10.1702 71.0727 10.108 71.37 10.108C71.6673 10.108 71.9613 10.1702 72.2332 10.2904C72.505 10.4107 72.7488 10.5865 72.9487 10.8065C73.1487 11.0265 73.3005 11.2858 73.3943 11.5679C73.4882 11.85 73.5221 12.1486 73.4938 12.4445C73.5226 12.7407 73.4891 13.0397 73.3955 13.3222C73.3019 13.6048 73.1502 13.8646 72.9502 14.085C72.7502 14.3054 72.5062 14.4815 72.2341 14.602C71.962 14.7226 71.6676 14.7848 71.37 14.7848C71.0724 14.7848 70.778 14.7226 70.5059 14.602C70.2338 14.4815 69.9899 14.3054 69.7898 14.085C69.5898 13.8646 69.4381 13.6048 69.3445 13.3222C69.2509 13.0397 69.2174 12.7407 69.2462 12.4445V12.4445ZM72.5792 12.4445C72.5792 11.4684 72.1407 10.8976 71.3712 10.8976C70.5988 10.8976 70.1642 11.4684 70.1642 12.4445C70.1642 13.4284 70.5988 13.9948 71.3712 13.9948C72.1408 13.9948 72.5792 13.4245 72.5792 12.4445H72.5792Z" fill="white"/>
<path d="M74.4293 13.4244C74.4293 12.6139 75.0328 12.1466 76.1041 12.0802L77.3239 12.0099V11.6212C77.3239 11.1456 77.0094 10.8771 76.402 10.8771C75.9059 10.8771 75.5621 11.0592 75.4635 11.3776H74.6031C74.694 10.6041 75.4215 10.108 76.443 10.108C77.5719 10.108 78.2086 10.67 78.2086 11.6212V14.6979H77.3531V14.0651H77.2828C77.1401 14.2921 76.9397 14.4771 76.7021 14.6013C76.4645 14.7255 76.1981 14.7844 75.9303 14.7721C75.7413 14.7917 75.5502 14.7716 75.3694 14.7129C75.1887 14.6542 75.0222 14.5582 74.8808 14.4313C74.7394 14.3043 74.6262 14.1491 74.5484 13.9757C74.4706 13.8023 74.4301 13.6145 74.4293 13.4244V13.4244ZM77.3239 13.0397V12.6632L76.2242 12.7335C75.6041 12.775 75.3229 12.986 75.3229 13.3829C75.3229 13.7882 75.6744 14.024 76.1579 14.024C76.2995 14.0384 76.4426 14.0241 76.5786 13.982C76.7146 13.9399 76.8408 13.8709 76.9495 13.779C77.0583 13.6872 77.1475 13.5744 77.2118 13.4474C77.2761 13.3204 77.3142 13.1817 77.3239 13.0397V13.0397Z" fill="white"/>
<path d="M79.3766 12.4445C79.3766 11.0216 80.108 10.1203 81.2457 10.1203C81.5271 10.1073 81.8064 10.1747 82.051 10.3146C82.2955 10.4545 82.4951 10.6611 82.6266 10.9103H82.693V8.43713H83.5817V14.6979H82.7301V13.9864H82.6598C82.5182 14.2339 82.3116 14.438 82.0623 14.5765C81.8131 14.7149 81.5307 14.7826 81.2457 14.7721C80.1002 14.7721 79.3766 13.8707 79.3766 12.4445ZM80.2946 12.4445C80.2946 13.3996 80.7448 13.9743 81.4977 13.9743C82.2467 13.9743 82.7096 13.3913 82.7096 12.4484C82.7096 11.5099 82.2419 10.9186 81.4977 10.9186C80.7496 10.9186 80.2946 11.4972 80.2946 12.4445H80.2946Z" fill="white"/>
<path d="M87.2584 12.4445C87.2301 12.1486 87.2639 11.85 87.3578 11.5679C87.4516 11.2858 87.6034 11.0265 87.8033 10.8065C88.0033 10.5865 88.247 10.4108 88.5188 10.2905C88.7907 10.1702 89.0847 10.1081 89.3819 10.1081C89.6792 10.1081 89.9732 10.1702 90.245 10.2905C90.5169 10.4108 90.7606 10.5865 90.9605 10.8065C91.1605 11.0265 91.3122 11.2858 91.4061 11.5679C91.4999 11.85 91.5338 12.1486 91.5055 12.4445C91.5343 12.7407 91.5009 13.0397 91.4073 13.3222C91.3137 13.6047 91.162 13.8645 90.962 14.085C90.762 14.3054 90.5181 14.4815 90.246 14.602C89.9739 14.7226 89.6796 14.7848 89.3819 14.7848C89.0843 14.7848 88.79 14.7226 88.5179 14.602C88.2457 14.4815 88.0018 14.3054 87.8018 14.085C87.6018 13.8645 87.4502 13.6047 87.3566 13.3222C87.263 13.0397 87.2296 12.7407 87.2584 12.4445V12.4445ZM90.5914 12.4445C90.5914 11.4684 90.1529 10.8976 89.3834 10.8976C88.6109 10.8976 88.1764 11.4684 88.1764 12.4445C88.1764 13.4284 88.611 13.9948 89.3834 13.9948C90.1529 13.9948 90.5914 13.4245 90.5914 12.4445Z" fill="white"/>
<path d="M92.6979 10.1949H93.5533V10.9103H93.6198C93.7324 10.6533 93.9224 10.438 94.1633 10.2942C94.4042 10.1504 94.6839 10.0853 94.9635 10.108C95.1826 10.0915 95.4026 10.1246 95.6072 10.2047C95.8118 10.2848 95.9958 10.4099 96.1454 10.5707C96.2951 10.7316 96.4067 10.924 96.4719 11.1338C96.5371 11.3437 96.5543 11.5655 96.5221 11.7828V14.6978H95.6334V12.006C95.6334 11.2823 95.319 10.9225 94.6618 10.9225C94.513 10.9155 94.3645 10.9409 94.2264 10.9967C94.0884 11.0525 93.964 11.1375 93.8619 11.2459C93.7598 11.3543 93.6823 11.4835 93.6348 11.6246C93.5872 11.7658 93.5708 11.9155 93.5865 12.0636V14.6979H92.6979V10.1949Z" fill="white"/>
<path d="M101.544 9.07385V10.2155H102.519V10.964H101.544V13.2794C101.544 13.7511 101.738 13.9576 102.18 13.9576C102.294 13.9573 102.407 13.9504 102.519 13.9371V14.6774C102.36 14.7059 102.198 14.7211 102.036 14.7228C101.047 14.7228 100.654 14.3751 100.654 13.507V10.964H99.9391V10.2154H100.654V9.07385H101.544Z" fill="white"/>
<path d="M103.733 8.43713H104.614V10.9186H104.684C104.802 10.6593 104.998 10.4427 105.243 10.2983C105.489 10.154 105.773 10.0889 106.057 10.1119C106.275 10.1001 106.493 10.1365 106.695 10.2185C106.898 10.3006 107.079 10.4262 107.227 10.5866C107.376 10.7469 107.486 10.938 107.552 11.1461C107.618 11.3542 107.637 11.5743 107.608 11.7907V14.6979H106.718V12.0099C106.718 11.2906 106.383 10.9264 105.756 10.9264C105.603 10.9139 105.449 10.9349 105.305 10.9879C105.162 11.041 105.031 11.1248 104.923 11.2335C104.815 11.3423 104.732 11.4733 104.68 11.6174C104.628 11.7616 104.608 11.9153 104.622 12.068V14.6979H103.733L103.733 8.43713Z" fill="white"/>
<path d="M112.79 13.4821C112.669 13.8936 112.407 14.2496 112.051 14.4877C111.694 14.7259 111.265 14.831 110.838 14.7848C110.542 14.7926 110.247 14.7358 109.974 14.6183C109.702 14.5008 109.458 14.3253 109.26 14.1042C109.063 13.8831 108.915 13.6215 108.828 13.3377C108.742 13.0539 108.718 12.7546 108.758 12.4606C108.719 12.1657 108.743 11.8658 108.83 11.5811C108.916 11.2964 109.063 11.0337 109.26 10.8106C109.457 10.5875 109.699 10.4093 109.971 10.2881C110.242 10.1669 110.537 10.1055 110.835 10.108C112.087 10.108 112.843 10.964 112.843 12.378V12.6881H109.664V12.7379C109.65 12.9032 109.671 13.0695 109.725 13.2263C109.779 13.383 109.865 13.5267 109.978 13.6482C110.091 13.7696 110.228 13.8662 110.38 13.9316C110.533 13.9969 110.697 14.0298 110.863 14.0279C111.075 14.0535 111.291 14.0152 111.482 13.918C111.672 13.8208 111.83 13.669 111.934 13.482L112.79 13.4821ZM109.664 12.0309H111.938C111.949 11.8798 111.929 11.728 111.878 11.5853C111.827 11.4425 111.747 11.3121 111.642 11.2022C111.538 11.0923 111.412 11.0055 111.272 10.9474C111.132 10.8892 110.981 10.8609 110.83 10.8644C110.676 10.8625 110.523 10.8913 110.381 10.9493C110.239 11.0072 110.109 11.0931 110.001 11.2018C109.892 11.3105 109.806 11.4399 109.748 11.5823C109.69 11.7247 109.662 11.8772 109.664 12.0309H109.664Z" fill="white"/>
</svg>
