<svg width="24" height="24" viewBox="0 0 24 24" fill="none" xmlns="http://www.w3.org/2000/svg">
<path d="M20 11.992C20 7.58 16.416 4 12 4C7.584 4 4 7.58 4 11.992C4 14.422 5.104 16.612 6.832 18.082C6.848 18.098 6.864 18.098 6.864 18.114C7.008 18.226 7.152 18.338 7.312 18.45C7.392 18.498 7.456 18.561 7.536 18.625C8.85807 19.5214 10.4187 20.0004 12.016 20C13.6133 20.0004 15.1739 19.5214 16.496 18.625C16.576 18.577 16.64 18.514 16.72 18.465C16.864 18.354 17.024 18.242 17.168 18.13C17.184 18.114 17.2 18.114 17.2 18.098C18.896 16.611 20 14.422 20 11.992V11.992ZM12 18.993C10.496 18.993 9.12 18.513 7.984 17.714C8 17.586 8.032 17.459 8.064 17.331C8.15934 16.9841 8.29917 16.651 8.48 16.34C8.656 16.036 8.864 15.764 9.12 15.524C9.36 15.284 9.648 15.061 9.936 14.885C10.24 14.709 10.56 14.581 10.912 14.485C11.2667 14.3894 11.6326 14.3413 12 14.342C13.0907 14.3343 14.1412 14.7526 14.928 15.508C15.296 15.876 15.584 16.308 15.792 16.803C15.904 17.091 15.984 17.395 16.032 17.714C14.8512 18.5442 13.4434 18.9907 12 18.993ZM9.552 11.593C9.41102 11.2702 9.34013 10.9212 9.344 10.569C9.344 10.218 9.408 9.866 9.552 9.546C9.696 9.226 9.888 8.939 10.128 8.699C10.368 8.459 10.656 8.268 10.976 8.124C11.296 7.98 11.648 7.916 12 7.916C12.368 7.916 12.704 7.98 13.024 8.124C13.344 8.268 13.632 8.46 13.872 8.699C14.112 8.939 14.304 9.227 14.448 9.546C14.592 9.866 14.656 10.218 14.656 10.569C14.656 10.937 14.592 11.273 14.448 11.592C14.309 11.9073 14.1138 12.1946 13.872 12.44C13.6265 12.6815 13.3392 12.8763 13.024 13.015C12.3628 13.2867 11.6212 13.2867 10.96 13.015C10.6448 12.8763 10.3575 12.6815 10.112 12.44C9.86981 12.1982 9.67929 11.9097 9.552 11.592V11.593ZM16.976 16.899C16.976 16.867 16.96 16.851 16.96 16.819C16.8026 16.3184 16.5707 15.8444 16.272 15.413C15.973 14.9784 15.6056 14.5951 15.184 14.278C14.862 14.0358 14.513 13.8317 14.144 13.67C14.3119 13.5592 14.4674 13.4308 14.608 13.287C14.8465 13.0515 15.056 12.7883 15.232 12.503C15.5864 11.9208 15.7694 11.2505 15.76 10.569C15.7649 10.0645 15.667 9.56432 15.472 9.099C15.2795 8.65064 15.0025 8.24356 14.656 7.9C14.31 7.56003 13.9029 7.28859 13.456 7.1C12.9899 6.90539 12.4891 6.80774 11.984 6.813C11.4789 6.80806 10.978 6.90605 10.512 7.101C10.0613 7.28919 9.65311 7.56638 9.312 7.916C8.97204 8.26159 8.70059 8.66842 8.512 9.115C8.31705 9.58032 8.21905 10.0805 8.224 10.585C8.224 10.937 8.272 11.273 8.368 11.592C8.464 11.928 8.592 12.232 8.768 12.519C8.928 12.807 9.152 13.063 9.392 13.303C9.536 13.447 9.696 13.574 9.872 13.686C9.50184 13.8521 9.15272 14.0615 8.832 14.31C8.416 14.63 8.048 15.013 7.744 15.429C7.44226 15.8586 7.21008 16.3331 7.056 16.835C7.04 16.867 7.04 16.899 7.04 16.915C5.776 15.636 4.992 13.91 4.992 11.992C4.992 8.14 8.144 4.991 12 4.991C15.856 4.991 19.008 8.14 19.008 11.992C19.0059 13.832 18.2753 15.5962 16.976 16.899V16.899Z" fill="black"/>
</svg>